<svg width="233" height="40" viewBox="0 0 233 40" fill="none" xmlns="http://www.w3.org/2000/svg">
<path opacity="0.5" d="M34.258 13.377H28.406V27H34.163C35.949 27 37.26 26.468 38.077 25.404C38.628 24.682 38.913 23.903 38.913 23.029C38.913 21.965 38.609 21.148 38.001 20.559C37.659 20.236 37.127 19.932 36.424 19.666C36.899 19.419 37.279 19.153 37.526 18.868C38.02 18.317 38.248 17.614 38.248 16.74C38.248 16.018 38.058 15.372 37.659 14.802C36.975 13.852 35.854 13.377 34.258 13.377ZM33.574 19.134H30.211V14.916H33.498C34.315 14.916 34.923 14.992 35.322 15.163C36.044 15.486 36.405 16.075 36.405 16.968C36.405 17.861 36.063 18.469 35.379 18.811C34.942 19.02 34.353 19.134 33.574 19.134ZM34.182 25.423H30.211V20.635H33.878C34.638 20.635 35.265 20.711 35.74 20.92C36.614 21.281 37.07 21.946 37.07 22.934C37.07 23.523 36.918 24.017 36.614 24.435C36.12 25.1 35.322 25.423 34.182 25.423ZM52.3459 15.315C51.1869 13.776 49.4009 12.997 47.0069 12.997C44.7079 12.997 42.9599 13.852 41.7819 15.524C40.8699 16.835 40.4139 18.412 40.4139 20.255C40.4139 22.288 40.9459 23.979 42.0289 25.328C43.2259 26.696 44.8599 27.399 46.9689 27.399C49.2109 27.399 50.9399 26.601 52.1559 25.024C53.1819 23.675 53.6949 21.984 53.6949 19.951C53.6949 18.07 53.2389 16.531 52.3459 15.315ZM50.7309 23.998C49.9899 25.157 48.8119 25.746 47.1969 25.746C45.4679 25.746 44.2329 25.233 43.4729 24.188C42.7129 23.162 42.3329 21.889 42.3329 20.369C42.3329 18.488 42.7699 17.063 43.6629 16.094C44.5559 15.125 45.6959 14.65 47.1209 14.65C48.5649 14.65 49.7049 15.125 50.5599 16.113C51.3959 17.082 51.8139 18.374 51.8139 19.97C51.8139 21.49 51.4529 22.839 50.7309 23.998ZM67.1339 15.315C65.9749 13.776 64.1889 12.997 61.7949 12.997C59.4959 12.997 57.7479 13.852 56.5699 15.524C55.6579 16.835 55.2019 18.412 55.2019 20.255C55.2019 22.288 55.7339 23.979 56.8169 25.328C58.0139 26.696 59.6479 27.399 61.7569 27.399C63.9989 27.399 65.7279 26.601 66.9439 25.024C67.9699 23.675 68.4829 21.984 68.4829 19.951C68.4829 18.07 68.0269 16.531 67.1339 15.315ZM65.5189 23.998C64.7779 25.157 63.5999 25.746 61.9849 25.746C60.2559 25.746 59.0209 25.233 58.2609 24.188C57.5009 23.162 57.1209 21.889 57.1209 20.369C57.1209 18.488 57.5579 17.063 58.4509 16.094C59.3439 15.125 60.4839 14.65 61.9089 14.65C63.3529 14.65 64.4929 15.125 65.3479 16.113C66.1839 17.082 66.6019 18.374 66.6019 19.97C66.6019 21.49 66.2409 22.839 65.5189 23.998ZM71.909 22.611H70.161C70.142 24.074 70.617 25.233 71.586 26.107C72.536 26.962 73.866 27.399 75.557 27.399C77.02 27.399 78.293 27.076 79.395 26.43C80.478 25.784 81.029 24.701 81.029 23.181C81.029 21.965 80.592 21.053 79.737 20.407C79.224 20.046 78.521 19.761 77.59 19.552L75.69 19.115C74.398 18.811 73.581 18.564 73.201 18.374C72.65 18.07 72.384 17.576 72.384 16.911C72.384 16.303 72.612 15.771 73.087 15.315C73.562 14.859 74.36 14.631 75.443 14.631C76.773 14.631 77.742 14.973 78.312 15.695C78.616 16.075 78.806 16.645 78.901 17.367H80.63C80.63 15.866 80.136 14.745 79.148 14.061C78.141 13.377 76.925 13.035 75.5 13.035C73.942 13.035 72.745 13.415 71.89 14.213C71.054 14.992 70.617 15.999 70.617 17.215C70.617 18.355 71.054 19.21 71.928 19.78C72.422 20.103 73.277 20.407 74.474 20.673L76.336 21.091C77.324 21.319 78.065 21.585 78.54 21.889C78.996 22.212 79.224 22.744 79.224 23.485C79.224 24.473 78.692 25.157 77.571 25.537C77.02 25.746 76.374 25.841 75.69 25.841C74.132 25.841 73.068 25.385 72.441 24.492C72.118 23.998 71.947 23.371 71.909 22.611ZM88.6859 14.992H93.2839V13.377H82.2259V14.992H86.8239V27H88.6859V14.992ZM105.089 15.049V13.377H95.1521V27H105.241V25.385H96.9571V20.749H104.481V19.172H96.9571V15.049H105.089ZM114.19 13.377H107.882V27H109.725V21.148H113.924C114.684 21.148 115.235 21.243 115.596 21.414C116.204 21.718 116.527 22.307 116.584 23.2L116.698 25.461C116.717 25.993 116.755 26.354 116.793 26.544C116.831 26.734 116.869 26.886 116.926 27H119.206V26.696C118.902 26.582 118.712 26.297 118.598 25.86C118.541 25.613 118.484 25.214 118.484 24.701L118.408 22.877C118.389 22.079 118.237 21.509 117.971 21.148C117.686 20.806 117.287 20.521 116.755 20.293C117.363 19.989 117.838 19.571 118.18 19.058C118.503 18.526 118.674 17.861 118.674 17.044C118.674 15.486 118.047 14.403 116.755 13.833C116.09 13.529 115.235 13.377 114.19 13.377ZM114 19.609H109.725V14.954H114.228C114.874 14.954 115.368 15.049 115.748 15.239C116.451 15.581 116.812 16.246 116.812 17.215C116.812 18.127 116.546 18.754 116.052 19.096C115.539 19.438 114.855 19.609 114 19.609ZM137.883 15.315C136.724 13.776 134.938 12.997 132.544 12.997C130.245 12.997 128.497 13.852 127.319 15.524C126.407 16.835 125.951 18.412 125.951 20.255C125.951 22.288 126.483 23.979 127.566 25.328C128.763 26.696 130.397 27.399 132.506 27.399C134.748 27.399 136.477 26.601 137.693 25.024C138.719 23.675 139.232 21.984 139.232 19.951C139.232 18.07 138.776 16.531 137.883 15.315ZM136.268 23.998C135.527 25.157 134.349 25.746 132.734 25.746C131.005 25.746 129.77 25.233 129.01 24.188C128.25 23.162 127.87 21.889 127.87 20.369C127.87 18.488 128.307 17.063 129.2 16.094C130.093 15.125 131.233 14.65 132.658 14.65C134.102 14.65 135.242 15.125 136.097 16.113C136.933 17.082 137.351 18.374 137.351 19.97C137.351 21.49 136.99 22.839 136.268 23.998ZM147.75 13.377H141.613V27H143.475V21.243H147.75C149.118 21.243 150.144 20.844 150.809 20.046C151.474 19.267 151.797 18.336 151.797 17.272C151.797 16.037 151.436 15.087 150.676 14.384C149.935 13.719 148.966 13.377 147.75 13.377ZM148.814 15.239C149.555 15.6 149.935 16.284 149.935 17.291C149.935 18.184 149.669 18.792 149.156 19.153C148.643 19.495 147.959 19.685 147.142 19.685H143.475V14.954H147.142C147.864 14.954 148.415 15.049 148.814 15.239ZM164.223 15.049V13.377H154.286V27H164.375V25.385H156.091V20.749H163.615V19.172H156.091V15.049H164.223ZM175.851 24.416L168.973 13.377H166.788V27H168.555V15.961L175.547 27H177.618V13.377H175.851V24.416ZM190.608 15.049V13.377H180.671V27H190.76V25.385H182.476V20.749H190V19.172H182.476V15.049H190.608ZM199.709 13.377H193.401V27H195.244V21.148H199.443C200.203 21.148 200.754 21.243 201.115 21.414C201.723 21.718 202.046 22.307 202.103 23.2L202.217 25.461C202.236 25.993 202.274 26.354 202.312 26.544C202.35 26.734 202.388 26.886 202.445 27H204.725V26.696C204.421 26.582 204.231 26.297 204.117 25.86C204.06 25.613 204.003 25.214 204.003 24.701L203.927 22.877C203.908 22.079 203.756 21.509 203.49 21.148C203.205 20.806 202.806 20.521 202.274 20.293C202.882 19.989 203.357 19.571 203.699 19.058C204.022 18.526 204.193 17.861 204.193 17.044C204.193 15.486 203.566 14.403 202.274 13.833C201.609 13.529 200.754 13.377 199.709 13.377ZM199.519 19.609H195.244V14.954H199.747C200.393 14.954 200.887 15.049 201.267 15.239C201.97 15.581 202.331 16.246 202.331 17.215C202.331 18.127 202.065 18.754 201.571 19.096C201.058 19.438 200.374 19.609 199.519 19.609Z" fill="white"/>
<rect opacity="0.5" x="1" y="1" width="231" height="38" stroke="white" stroke-width="2"/>
</svg>
